Coordinates
version=1
nRows=20
nColumns=34
inDegrees=yes

Units are S.I. units (second, meters, Newtons, ...)
If the header above contains a line with 'inDegrees', this indicates whether rotational values are in degrees (yes) or radians (no).

endheader
time	pelvis_tilt	pelvis_list	pelvis_rotation	pelvis_tx	pelvis_ty	pelvis_tz	hip_flexion_r	hip_adduction_r	hip_rotation_r	knee_angle_r	ankle_angle_r	subtalar_angle_r	mtp_angle_r	hip_flexion_l	hip_adduction_l	hip_rotation_l	knee_angle_l	ankle_angle_l	subtalar_angle_l	mtp_angle_l	lumbar_extension	lumbar_bending	lumbar_rotation	arm_flex_r	arm_add_r	arm_rot_r	elbow_flex_r	pro_sup_r	arm_flex_l	arm_add_l	arm_rot_l	elbow_flex_l	pro_sup_l
      4.30000000	    -15.11919134	      6.88266367	     -0.91783592	      3.51222329	      0.94274621	     -0.07626077	     -7.57684516	     -7.41155458	    -23.19558265	      7.69008171	     11.39923383	      2.60031184	      0.00000000	      6.56690406	      6.15905650	    -17.97437898	      1.39995387	     15.47287107	     11.63018404	      0.00000000	     12.54641528	     -9.71431274	    -21.75939754	      6.60864042	     -9.14053712	     21.33262120	     40.98383178	     94.08282785	    -37.63626649	      5.24845127	    -29.47756865	     48.53588949	    104.05028807
      4.31666670	    -15.43356755	      6.80867946	     -0.95083679	      3.51757857	      0.94468439	     -0.07829128	     -7.43026214	     -7.58427227	    -21.83587453	      8.61651374	      8.25954216	     -0.84068997	      0.00000000	      6.63417788	      6.08578171	    -17.45899665	      2.11246401	     15.07296605	     10.24753311	      0.00000000	     13.33655627	     -9.96494499	    -21.87652236	      5.36709898	     -9.28168949	     20.88374650	     41.57167967	     94.48922443	    -38.31991599	      5.65270776	    -30.62140458	     49.40150876	    103.41067714
      4.33333330	    -15.91030050	      6.91077614	     -0.85277540	      3.51946219	      0.94233907	     -0.08177694	     -7.02625915	     -7.97063798	    -20.42470386	      9.44504386	      6.42218978	     -3.22638359	      0.00000000	      7.27515801	      6.18799994	    -16.67363432	      3.13436110	     14.67335924	      8.67742883	      0.00000000	     14.07987750	    -10.31984203	    -22.26602236	      4.23714136	     -9.39141960	     20.43840919	     42.10344382	     94.75844782	    -38.76397538	      5.75661772	    -31.20936956	     50.40225622	    103.08876069
      4.35000000	    -16.18935000	      7.19012872	     -1.09148392	      3.51465528	      0.94120287	     -0.08356066	     -6.56778192	     -8.61309895	    -18.38706876	     10.15708658	      6.48767023	     -4.58961427	      0.00000000	      8.06283162	      6.45215694	    -16.03669264	      4.04624977	     14.70238842	      7.07366753	      0.00000000	     14.29038584	    -10.64336876	    -22.07012629	      3.35426301	     -9.35245907	     20.05550645	     42.27101711	     94.97336563	    -38.61711715	      5.36573341	    -31.45426979	     51.29518975	    102.94112519
      4.36666670	    -16.34403457	      7.21751120	     -1.08880842	      3.51859101	      0.93772801	     -0.08679079	     -5.99735200	     -8.92265884	    -16.66789345	     10.81130023	      6.29872743	     -6.24458913	      0.00000000	      8.49705102	      6.60601477	    -15.22014849	      4.32836185	     14.89629053	      5.80360695	      0.00000000	     14.07407969	    -10.73777133	    -22.04061327	      2.29308924	     -9.39003475	     19.30883990	     42.53917624	     95.19726068	    -38.32174446	      4.79148986	    -31.39884655	     52.75819659	    102.92434149
      4.38333330	    -16.67425006	      7.08185155	     -0.94525980	      3.52233819	      0.94052188	     -0.08745444	     -5.37637322	     -8.99007094	    -15.07522082	     11.18163469	      7.18707150	     -6.46706620	      0.00000000	      8.67438786	      6.62171490	    -14.66020500	      4.26817861	     15.31116890	      5.61941843	      0.00000000	     13.86795375	    -10.60817372	    -22.57967101	      1.65572660	     -9.37219586	     19.10036079	     42.60690514	     95.27529470	    -37.90526502	      4.30412189	    -31.33123098	     53.57096032	    102.96300505
      4.40000000	    -17.30782743	      6.56498683	     -0.81063111	      3.53854977	      0.93927856	     -0.09010464	     -4.83800821	     -8.65073725	    -14.03508988	     11.38563311	      6.28185423	     -7.07197581	      0.00000000	      8.72419760	      6.18963021	    -14.10671168	      4.00575800	     15.86673637	      5.81264143	      0.00000000	     14.22962485	    -10.22458784	    -22.76474668	      0.62329568	     -9.45147099	     18.59932907	     42.57364427	     95.47416071	    -38.23717390	      4.06406701	    -31.16133024	     56.12411855	    103.11765036
      4.41666670	    -17.80540022	      5.65137362	     -0.59042359	      3.55002273	      0.94056163	     -0.09192522	     -4.57902237	     -7.88003907	    -13.06393203	     11.84729825	      4.24228835	     -8.94248933	      0.00000000	      7.96689497	      5.41316706	    -13.63825855	      3.40754548	     16.52919767	      6.84424226	      0.00000000	     14.39048892	     -9.44532216	    -23.38790791	     -0.50234087	     -9.65918484	     17.82461774	     43.11875418	     95.80634162	    -38.47380552	      4.15029445	    -31.31209468	     58.31074363	    103.50163001
      4.43333330	    -17.94527884	      4.18160956	     -0.27737694	      3.55204989	      0.94029692	     -0.09515263	     -4.18902978	     -6.63622969	    -12.48714628	     13.05027435	      3.94925878	     -8.86437905	      0.00000000	      6.90043391	      4.10062088	    -12.86973726	      2.90644116	     16.89984605	      7.18428657	      0.00000000	     14.41402010	     -7.94136472	    -24.12596746	     -1.14046988	    -10.00352047	     17.77984474	     42.89471957	     95.85014127	    -37.85390444	      4.00169753	    -31.32050750	     59.00428157	    103.56367171
      4.45000000	    -17.34785151	      1.94819264	      0.45926775	      3.55208332	      0.94496412	     -0.09882850	     -4.06423498	     -4.44934535	    -12.61143801	     14.16562812	      1.31198864	    -10.49571622	      0.00000000	      5.35710186	      2.04261586	    -11.80973198	      2.26896693	     17.79875305	      8.11001397	      0.00000000	     13.31864294	     -5.72240446	    -24.97096995	     -1.82326878	    -10.41867782	     17.44115641	     42.55628152	     95.98581501	    -36.60560611	      3.59208481	    -31.16553066	     60.49020393	    104.00509470
      4.46666670	    -16.51509792	     -0.55468311	      1.19458210	      3.55856886	      0.94964794	     -0.10309305	     -3.61555127	     -1.90059565	    -12.53124638	     15.87243437	     -2.05307381	    -13.75657223	      0.00000000	      3.53534652	     -0.35893368	    -11.54039243	      1.69426798	     17.76843227	      9.41820030	      0.00000000	     12.29956081	     -3.00532511	    -25.50270427	     -2.50809444	    -10.57046242	     16.43242782	     41.70511411	     96.11861056	    -34.88687202	      2.83794409	    -30.55783106	     61.11482158	    105.08847230
      4.48333330	    -15.42248727	     -3.01274193	      1.99312167	      3.56780264	      0.95517708	     -0.10724137	     -3.26271238	      0.48007004	    -13.40092389	     17.70886860	     -3.79816916	    -15.52819934	      0.00000000	      1.74367655	     -2.77961546	    -11.08130967	      1.19733127	     17.82367367	     10.29507436	      0.00000000	     11.14183812	     -0.26964300	    -25.61070109	     -3.34830137	    -10.82164807	     15.22449226	     41.03388621	     96.21789447	    -32.91306994	      2.18506678	    -30.01567981	     62.02085027	    106.19822575
      4.50000000	    -14.63612981	     -5.10640959	      2.89797556	      3.58540471	      0.96302552	     -0.10896682	     -2.84690882	      2.62903501	    -13.74802928	     19.24359757	     -4.35799970	    -16.78244484	      0.00000000	      0.22164352	     -4.98296714	    -10.70886679	      0.67297791	     17.47837439	     11.22118342	      0.00000000	     10.72325243	      1.95651846	    -25.85093469	     -4.75223417	    -11.03099791	     13.71444680	     40.53649615	     96.26197995	    -31.40779019	      1.85186477	    -29.70571647	     63.41594094	    107.12209802
      4.51666670	    -14.14922232	     -7.02392913	      3.73914915	      3.59772125	      0.96009555	     -0.11338162	     -1.80955651	      4.75097934	    -12.85614724	     21.10569845	     -5.08866225	    -20.89191051	      0.00000000	     -0.87002022	     -7.08921655	    -10.92876748	      0.56269117	     17.76426629	     12.39986538	      0.00000000	     10.86259777	      4.47971694	    -22.87669931	     -9.87555853	    -10.33641302	      4.08289396	     44.43399417	     96.82639685	    -28.39313960	     -0.04568539	    -27.29405559	     63.81580280	    111.98174269
      4.53333330	    -12.79822866	     -8.66100518	      4.94979738	      3.60493395	      0.95740946	     -0.11981564	     -1.94689573	      6.27297746	    -13.70766722	     22.24589115	     -2.72760604	    -21.56410123	      0.00000000	     -2.65150962	     -8.84637425	     -9.76780060	      0.14828354	     17.95056100	     11.92739252	      0.00000000	     11.35733785	     10.53843218	     -0.86171954	    -29.23349402	      0.22054218	    -30.96406749	     61.68135853	    113.11279950	     -8.62202577	     -9.68090644	      5.13618734	     45.62887112	    118.00196541
      4.55000000	    -12.14821530	    -10.06082961	      5.56839643	      3.60228555	      0.96406268	     -0.12190329	     -0.73914430	      7.57050008	    -14.09470905	     23.11011633	     -1.00764356	    -23.20664981	      0.00000000	     -3.50936013	    -10.35894873	     -9.56007583	      0.00000000	     18.04927358	     12.18643332	      0.00000000	     11.29025004	     12.05428363	     -1.49736208	    -29.90876345	      0.22496902	    -31.07393613	     60.98116108	    113.08642057	     -7.63611505	     -9.34219032	      5.08105581	     46.11680748	    117.76218137
      4.56666670	    -11.58677235	    -11.08066805	      6.13582774	      3.61302784	      0.96544638	     -0.12678618	      0.01858153	      8.49649026	    -14.40029236	     23.13958820	      0.45210374	    -24.96445468	      0.00000000	     -4.39354995	    -11.38602542	     -9.32321822	      0.00000000	     18.30008647	     12.44074135	      0.00000000	     11.57060746	     13.22361678	     -2.07614124	    -30.72586597	      0.32752321	    -31.30807838	     60.17717901	    113.04736293	     -6.83869527	     -9.00627281	      5.03965963	     46.56267943	    117.52020791
      4.58333330	    -11.40474527	    -11.77072905	      6.35501160	      3.62182612	      0.97247013	     -0.12770346	      0.85541326	      9.24868255	    -14.19573744	     22.27421168	     -2.06099300	    -29.18198153	      0.00000000	     -4.98919563	    -12.10779792	     -9.72577801	      0.22423657	     18.14294436	     12.94793817	      0.00000000	     12.02328704	     13.86872561	     -1.84829997	    -30.89095729	      1.15804857	    -33.34451990	     57.83961454	    112.49783448	     -6.14266734	     -8.84450251	      5.23157555	     47.45036605	    115.30754268
      4.60000000	    -11.47867298	    -12.33130038	      6.95283747	      3.62845207	      0.97808682	     -0.12762693	      1.71090558	     10.00847173	    -14.07443153	     20.35349121	     -1.29938154	    -29.61997582	      0.00000000	     -5.26450366	    -12.69660101	     -9.64638802	      0.10209965	     17.43798261	     13.08677549	      0.00000000	     12.70474294	     14.42398142	     -2.36737916	    -31.70548019	      1.57820280	    -33.39677481	     57.50901400	    112.47657532	     -5.62373712	     -8.75547869	      5.27129404	     47.81193339	    115.07542454
      4.61666670	    -11.70671329	    -12.75766237	      7.43843020	      3.63053950	      0.97584275	     -0.12919433	      2.71752761	     10.57208391	    -14.03558904	     18.15424548	     -0.30192110	    -29.75552243	      0.00000000	     -4.93128951	    -13.13014984	     -9.38191187	      0.00000000	     16.81954701	     13.11230312	      0.00000000	     13.26260839	     14.80056882	     -2.48208615	    -32.16848306	      1.94522362	    -33.61700747	     57.06144155	    112.39951371	     -5.08670661	     -8.74185280	      5.45456432	     48.61143705	    114.64195112
